<svg width="129" height="30" viewBox="0 0 129 30" fill="none" xmlns="http://www.w3.org/2000/svg">
<path d="M14.481 16.952C14.433 16.872 14.265 16.752 13.977 16.592C13.689 16.416 13.329 16.232 12.897 16.04C12.465 15.848 11.993 15.68 11.481 15.536C10.969 15.392 10.457 15.32 9.945 15.32C9.273 15.32 8.753 15.44 8.385 15.68C8.017 15.904 7.833 16.256 7.833 16.736C7.833 17.12 7.969 17.424 8.241 17.648C8.529 17.872 8.937 18.072 9.465 18.248C9.993 18.408 10.641 18.6 11.409 18.824C12.497 19.112 13.441 19.464 14.241 19.88C15.041 20.28 15.649 20.8 16.065 21.44C16.497 22.08 16.713 22.928 16.713 23.984C16.713 24.944 16.537 25.76 16.185 26.432C15.833 27.088 15.353 27.624 14.745 28.04C14.153 28.44 13.473 28.736 12.705 28.928C11.937 29.104 11.145 29.192 10.329 29.192C9.497 29.192 8.641 29.112 7.761 28.952C6.897 28.776 6.065 28.536 5.265 28.232C4.465 27.912 3.729 27.528 3.057 27.08L4.785 23.648C4.849 23.728 5.057 23.88 5.409 24.104C5.761 24.312 6.193 24.536 6.705 24.776C7.233 25 7.817 25.2 8.457 25.376C9.097 25.552 9.745 25.64 10.401 25.64C11.105 25.64 11.625 25.528 11.961 25.304C12.313 25.08 12.489 24.768 12.489 24.368C12.489 23.936 12.305 23.6 11.937 23.36C11.585 23.12 11.097 22.904 10.473 22.712C9.865 22.52 9.161 22.304 8.361 22.064C7.321 21.744 6.457 21.384 5.769 20.984C5.097 20.584 4.593 20.096 4.257 19.52C3.937 18.944 3.777 18.224 3.777 17.36C3.777 16.16 4.057 15.152 4.617 14.336C5.193 13.504 5.961 12.88 6.921 12.464C7.881 12.032 8.929 11.816 10.065 11.816C10.865 11.816 11.633 11.912 12.369 12.104C13.121 12.296 13.817 12.536 14.457 12.824C15.113 13.112 15.697 13.4 16.209 13.688L14.481 16.952ZM19.0226 29V11.96H22.9586V29H19.0226ZM31.8339 11.984H35.4579L37.2339 17.432L39.0099 11.984H42.6579L39.7539 19.904L41.4819 24.44L45.7539 11.96H50.0499L43.4019 29H39.9939L37.2339 22.328L34.4979 29H31.0659L24.4419 11.96H28.7139L33.0099 24.44L34.6899 19.904L31.8339 11.984ZM67.4914 29V11.96H71.4274V19.304L77.6674 11.96H82.0834L75.6994 19.568L82.5154 29H78.0034L73.2034 22.16L71.4274 23.984V29H67.4914ZM90.2366 29.144C88.9566 29.144 87.7966 28.904 86.7566 28.424C85.7326 27.928 84.8446 27.272 84.0926 26.456C83.3566 25.624 82.7886 24.696 82.3886 23.672C81.9886 22.632 81.7886 21.56 81.7886 20.456C81.7886 19.32 81.9966 18.24 82.4126 17.216C82.8446 16.192 83.4366 15.28 84.1886 14.48C84.9566 13.664 85.8606 13.024 86.9006 12.56C87.9406 12.096 89.0766 11.864 90.3086 11.864C91.5726 11.864 92.7166 12.112 93.7406 12.608C94.7806 13.088 95.6686 13.744 96.4046 14.576C97.1566 15.408 97.7326 16.344 98.1326 17.384C98.5326 18.408 98.7326 19.456 98.7326 20.528C98.7326 21.664 98.5246 22.744 98.1086 23.768C97.6926 24.792 97.1006 25.712 96.3326 26.528C95.5646 27.328 94.6606 27.968 93.6206 28.448C92.5966 28.912 91.4686 29.144 90.2366 29.144ZM85.7966 20.504C85.7966 21.16 85.8926 21.8 86.0846 22.424C86.2766 23.032 86.5566 23.576 86.9246 24.056C87.3086 24.536 87.7806 24.92 88.3406 25.208C88.9006 25.496 89.5406 25.64 90.2606 25.64C91.0126 25.64 91.6686 25.496 92.2286 25.208C92.7886 24.904 93.2526 24.504 93.6206 24.008C93.9886 23.512 94.2606 22.96 94.4366 22.352C94.6286 21.728 94.7246 21.096 94.7246 20.456C94.7246 19.8 94.6286 19.168 94.4366 18.56C94.2446 17.952 93.9566 17.408 93.5726 16.928C93.1886 16.432 92.7166 16.048 92.1566 15.776C91.5966 15.504 90.9646 15.368 90.2606 15.368C89.5086 15.368 88.8526 15.512 88.2926 15.8C87.7486 16.088 87.2846 16.48 86.9006 16.976C86.5326 17.456 86.2526 18.008 86.0606 18.632C85.8846 19.24 85.7966 19.864 85.7966 20.504ZM99.8194 24.992C99.9794 25.104 100.315 25.264 100.827 25.472C101.355 25.664 101.971 25.76 102.675 25.76C103.235 25.76 103.691 25.664 104.043 25.472C104.411 25.28 104.683 24.992 104.859 24.608C105.051 24.208 105.179 23.696 105.243 23.072C105.307 22.432 105.339 21.664 105.339 20.768V11.96H109.275V20.624C109.275 21.904 109.203 23.072 109.059 24.128C108.915 25.184 108.619 26.104 108.171 26.888C107.739 27.656 107.083 28.248 106.203 28.664C105.323 29.064 104.147 29.264 102.675 29.264C101.923 29.264 101.243 29.176 100.635 29C100.027 28.824 99.4674 28.56 98.9554 28.208L99.8194 24.992ZM116.225 11.96H120.473L126.329 29H122.297L120.977 25.184H115.673L114.377 29H110.345L116.225 11.96ZM120.329 22.472L118.337 15.92L116.297 22.472H120.329Z" fill="#FF861A"/>
<path d="M59.4277 23.1197L58.6686 4.50511C58.6993 4.43066 58.7431 4.34307 58.8 4.29197C58.908 4.19124 59.0277 4.16351 59.0277 4.16351H59.8248L59.9766 3.65256L59.8657 3.42044H59.8336V3.03358H58.7898C58.8511 2.91971 58.908 2.76205 58.8657 2.6146C58.7839 2.34453 58.7577 2.31825 58.7577 2.31825C58.7577 2.31825 58.8292 1.94745 58.7124 1.71971C58.5927 1.49489 58.5226 1.34015 58.5226 1.34015C58.5226 1.34015 58.6219 1.16642 58.4584 0.90949C58.2934 0.658395 58.1387 0.496351 58.1577 0.362044C58.1752 0.242336 58.0891 0.0408759 58.0715 0H57.9241C57.9066 0.0408759 57.8204 0.242336 57.8394 0.362044C57.8569 0.496351 57.7022 0.658395 57.5401 0.90949C57.3766 1.16642 57.4745 1.34015 57.4745 1.34015C57.4745 1.34015 57.4044 1.49197 57.2847 1.71971C57.1664 1.94745 57.2409 2.31825 57.2409 2.31825C57.2409 2.31825 57.2117 2.34745 57.1328 2.6146C57.0876 2.76205 57.1431 2.91971 57.2029 3.03358H56.1635V3.4219H56.1255L56.0175 3.65256L56.1693 4.16351H56.9693C56.9693 4.16351 57.0876 4.19124 57.1971 4.29197C57.2526 4.34307 57.2978 4.43212 57.3285 4.50511L56.5708 23.1197H50V24.1007H51.0409C51.5036 24.2861 52.273 24.6219 52.8686 25.0438C53.5197 25.508 54.435 26.5577 54.8949 27.108H52.8336V28.6701H63.1635V27.108H61.1007C61.5591 26.5577 62.4745 25.5051 63.1314 25.0438C63.7241 24.6219 64.4949 24.2847 64.9562 24.1007H66V23.1197H59.4277ZM57.5182 2.4073C57.6161 2.24964 57.5387 2.1927 57.5985 1.93869C57.6584 1.68029 57.7168 1.48905 57.7942 1.35183C57.8715 1.21168 57.9693 0.981022 57.9693 0.981022C57.9693 0.981022 57.835 2.11533 57.835 2.27153C57.835 2.42482 57.9095 2.93577 57.9095 2.93577L57.6365 2.91971C57.6365 2.91971 57.4234 2.56788 57.5182 2.4073ZM65.5635 23.6876H50.2993V23.3796H65.5635V23.6876Z" fill="#1D3C59"/>
</svg>
